<svg width="120" height="120" viewBox="0 0 120 120" fill="none" xmlns="http://www.w3.org/2000/svg">
<g clip-path="url(#clip0_94_3686)">
<path d="M41.625 105.001H30.375C29.8777 105.001 29.4008 104.803 29.0492 104.452C28.6975 104.1 28.5 103.623 28.5 103.126C28.5 102.629 28.6975 102.152 29.0492 101.8C29.4008 101.449 29.8777 101.251 30.375 101.251H41.625C42.1223 101.251 42.5992 101.449 42.9508 101.8C43.3025 102.152 43.5 102.629 43.5 103.126C43.5 103.623 43.3025 104.1 42.9508 104.452C42.5992 104.803 42.1223 105.001 41.625 105.001Z" fill="#DA8F75"/>
<path d="M60.7504 7.50053H11.2496C9.18731 7.43102 7.18139 8.18102 5.67056 9.58651C4.15974 10.992 3.26697 12.9386 3.1875 15.0005V105.001C3.26697 107.062 4.15974 109.009 5.67056 110.415C7.18139 111.82 9.18731 112.57 11.2496 112.501H60.7504C62.8127 112.57 64.8186 111.82 66.3294 110.415C67.8403 109.009 68.733 107.062 68.8125 105.001V15.0005C68.733 12.9386 67.8403 10.992 66.3294 9.58651C64.8186 8.18102 62.8127 7.43102 60.7504 7.50053ZM6.9375 26.2505H65.0625V93.7505H6.9375V26.2505ZM11.2496 11.2505H60.7504C61.818 11.1824 62.8694 11.5379 63.6766 12.2399C64.4838 12.9419 64.9818 13.9338 65.0625 15.0005V22.5005H6.9375V15.0005C7.01823 13.9338 7.51619 12.9419 8.32341 12.2399C9.13063 11.5379 10.182 11.1824 11.2496 11.2505ZM60.7504 108.751H11.2496C10.182 108.819 9.13063 108.463 8.32341 107.761C7.51619 107.059 7.01823 106.067 6.9375 105.001V97.5005H65.0625V105.001C64.9818 106.067 64.4838 107.059 63.6766 107.761C62.8694 108.463 61.818 108.819 60.7504 108.751Z" fill="#DA8F75"/>
<path d="M36 18.458C37.0355 18.458 37.875 17.6185 37.875 16.583C37.875 15.5475 37.0355 14.708 36 14.708C34.9645 14.708 34.125 15.5475 34.125 16.583C34.125 17.6185 34.9645 18.458 36 18.458Z" fill="#DA8F75"/>
<path d="M28.5 18.458C29.5355 18.458 30.375 17.6185 30.375 16.583C30.375 15.5475 29.5355 14.708 28.5 14.708C27.4645 14.708 26.625 15.5475 26.625 16.583C26.625 17.6185 27.4645 18.458 28.5 18.458Z" fill="#DA8F75"/>
<path d="M43.5 18.458C44.5355 18.458 45.375 17.6185 45.375 16.583C45.375 15.5475 44.5355 14.708 43.5 14.708C42.4645 14.708 41.625 15.5475 41.625 16.583C41.625 17.6185 42.4645 18.458 43.5 18.458Z" fill="#DA8F75"/>
<path d="M42.7906 53.8491C42.4904 53.8492 42.1908 53.8229 41.8953 53.7704C40.9252 53.5604 40.0227 53.1122 39.2692 52.4663C38.5156 51.8205 37.9346 50.9972 37.5785 50.0708C36.7658 48.1008 36.5478 45.9358 36.9514 43.8433C37.8202 38.9178 41.3469 35.5587 44.9925 36.2069C45.9623 36.4171 46.8646 36.8654 47.618 37.5112C48.3714 38.1571 48.9523 38.9803 49.3083 39.9066C50.121 41.8766 50.3391 44.0415 49.9354 46.134C49.138 50.6521 46.0984 53.8491 42.7906 53.8491ZM44.1181 39.8809C42.819 39.8809 41.1299 41.7431 40.6446 44.4952C40.3747 45.8559 40.5012 47.2655 41.009 48.5564C41.2324 49.0627 41.7295 49.9334 42.5462 50.0771C43.8462 50.3096 45.7276 48.3943 46.2422 45.482C46.512 44.1213 46.3856 42.7117 45.8778 41.4208C45.6544 40.9145 45.1573 40.0438 44.3406 39.9002C44.2672 39.8872 44.1927 39.8808 44.1181 39.8809Z" fill="#DA8F75"/>
<path d="M51.6462 63.3429C51.1314 63.344 50.6204 63.2548 50.1364 63.0792C47.2077 62.0135 46.0212 58.1353 47.4347 54.2498C48.8492 50.3643 52.2504 48.1551 55.1801 49.2217C55.9614 49.537 56.6519 50.042 57.189 50.6912C57.7261 51.3403 58.0929 52.1131 58.2563 52.9397C58.6066 54.6455 58.4767 56.4151 57.8811 58.0515C57.2854 59.6879 56.2474 61.127 54.8825 62.2085C53.9517 62.9209 52.8181 63.3183 51.6462 63.3429ZM53.6695 52.7081C52.9242 52.7081 51.6297 53.6914 50.9586 55.5325C50.2142 57.5796 50.7425 59.31 51.4182 59.5563C51.6414 59.5921 51.8698 59.5771 52.0864 59.5123C52.303 59.4474 52.5021 59.3345 52.6688 59.1818C53.4508 58.5558 54.0367 57.7185 54.357 56.7694C54.7213 55.8363 54.8115 54.8174 54.6151 53.8351C54.5866 53.6108 54.5072 53.3959 54.3829 53.2069C54.2587 53.0179 54.0929 52.8599 53.8983 52.7447C53.8247 52.7193 53.7473 52.7069 53.6695 52.7081Z" fill="#DA8F75"/>
<path d="M20.3564 63.3433C19.1845 63.3187 18.0509 62.9213 17.12 62.2089C15.7359 61.1462 14.6934 59.7011 14.1217 58.0524C13.4994 56.4217 13.3689 54.6442 13.7463 52.9401C13.9097 52.1135 14.2765 51.3408 14.8136 50.6916C15.3507 50.0424 16.0411 49.5374 16.8225 49.2222C19.7485 48.1519 23.1534 50.3657 24.5669 54.2493C25.9814 58.1357 24.7949 62.0139 21.8661 63.0796C21.3822 63.2552 20.8712 63.3444 20.3564 63.3433ZM18.3331 52.7085C18.2553 52.7073 18.1778 52.7197 18.1042 52.7451C17.9096 52.8603 17.7438 53.0183 17.6196 53.2073C17.4953 53.3963 17.4159 53.6112 17.3874 53.8355C17.191 54.8178 17.2803 55.8358 17.6446 56.7689C17.9649 57.718 18.5517 58.5562 19.3338 59.1822C19.5005 59.3348 19.6997 59.4478 19.9162 59.5126C20.1328 59.5774 20.3612 59.5925 20.5844 59.5566C21.2601 59.3104 21.7883 57.58 21.0431 55.532C20.3729 53.6918 19.0783 52.7085 18.3331 52.7085Z" fill="#DA8F75"/>
<path d="M29.561 53.8497C26.2532 53.8497 23.2137 50.6527 22.4163 46.1346C22.0126 44.0421 22.2306 41.8772 23.0434 39.9072C23.3994 38.9808 23.9802 38.1577 24.7336 37.5118C25.4871 36.866 26.3894 36.4177 27.3592 36.2075C31.0085 35.5703 34.5314 38.9211 35.4003 43.8439C35.8039 45.9364 35.5859 48.1013 34.7731 50.0713C34.4172 50.9977 33.8363 51.8209 33.0829 52.4667C32.3295 53.1126 31.4272 53.5608 30.4573 53.771C30.1614 53.8234 29.8615 53.8497 29.561 53.8497ZM26.1095 45.4827C26.6231 48.395 28.4715 50.3094 29.8064 50.0778C30.6221 49.934 31.1193 49.0634 31.3426 48.5571C31.8504 47.2662 31.9769 45.8566 31.707 44.4959C31.1934 41.5827 29.3157 39.6729 28.0111 39.9008C27.1944 40.0446 26.6973 40.9152 26.4739 41.4215C25.9661 42.7124 25.8396 44.122 26.1095 45.4827Z" fill="#DA8F75"/>
<path d="M25.4543 83.8629C23.9659 83.9422 22.4787 83.6856 21.1029 83.1121C19.7271 82.5385 18.498 81.6627 17.5066 80.5496C16.2704 78.9709 15.6596 76.9918 15.791 74.9909C15.9224 72.99 16.7868 71.1078 18.2189 69.7043C19.0859 68.9598 20.0215 68.2992 21.0131 67.7314C22.1946 67.1391 23.2287 66.2901 24.0398 65.2466C24.5666 64.3365 24.9863 63.3684 25.2905 62.3618C25.7068 60.9859 26.308 59.673 27.0776 58.4589C28.1338 57.1013 29.5094 56.0259 31.0818 55.3285C32.6542 54.6311 34.3747 54.3334 36.09 54.4617C41.6052 54.4617 44.1512 56.6846 45.3158 58.5495C45.9962 59.7266 46.5188 60.988 46.8703 62.3014C47.1452 63.3915 47.5819 64.4343 48.1658 65.395C48.9732 66.5104 50.0601 67.3936 51.3172 67.9557C52.2673 68.4263 53.1549 69.0137 53.9594 69.7043C55.3912 71.1078 56.2555 72.9897 56.387 74.9903C56.5186 76.991 55.9082 78.9699 54.6725 80.5488C51.8984 84.0095 46.8786 84.2979 43.4187 83.4867C42.0042 83.0933 40.6508 82.5064 39.3969 81.7426C38.4046 81.0664 37.275 80.618 36.0891 80.4298C34.9024 80.6181 33.7722 81.0667 32.7794 81.7435C31.5257 82.5071 30.1726 83.094 28.7584 83.4876C27.6748 83.7372 26.5663 83.8631 25.4543 83.8629ZM36.09 58.2117C34.988 58.1228 33.8804 58.29 32.8538 58.7003C31.8271 59.1105 30.9093 59.7527 30.172 60.5765C29.5968 61.5217 29.146 62.5372 28.8308 63.5978C28.4353 64.8859 27.8854 66.1213 27.1929 67.2772C26.0886 68.8051 24.644 70.0551 22.9733 70.9284C22.1812 71.3781 21.4319 71.8994 20.7348 72.4857C20.0019 73.2414 19.5675 74.237 19.512 75.2883C19.4564 76.3395 19.7835 77.3753 20.4327 78.2041C22.0083 80.1697 25.3197 80.4398 27.9061 79.8355C28.9826 79.5137 30.012 79.0514 30.9676 78.4604C32.4941 77.4381 34.2576 76.8249 36.0891 76.6797C37.9199 76.8246 39.6828 77.4375 41.2087 78.4595C42.1645 79.0507 43.1943 79.5131 44.2712 79.8346C46.8557 80.4398 50.1708 80.1697 51.7455 78.2041C52.3945 77.3752 52.7214 76.3395 52.6659 75.2883C52.6103 74.2371 52.1761 73.2415 51.4434 72.4857C50.8596 71.9998 50.2189 71.5866 49.5354 71.2552C47.7616 70.4181 46.2319 69.1403 45.0924 67.5438C44.2799 66.2712 43.672 64.8792 43.2906 63.4184C43.0267 62.4134 42.6386 61.4453 42.1352 60.5363C41.1721 58.9936 39.1378 58.2117 36.09 58.2117Z" fill="#DA8F75"/>
</g>
<defs>
<clipPath id="clip0_94_3686">
<rect width="120" height="120" fill="white"/>
</clipPath>
</defs>
</svg>
