<svg width="120" height="120" viewBox="0 0 120 120" fill="none" xmlns="http://www.w3.org/2000/svg">
<path d="M104.686 97.9028C107.065 95.8975 108.991 93.4103 110.338 90.6056C111.685 87.8009 112.422 84.7425 112.5 81.6321C112.5 73.7766 107.704 66.4272 99.5695 61.6357C103.058 56.6487 104.951 50.7211 105 44.6356C105 24.1589 83.1308 7.5 56.25 7.5C29.3692 7.5 7.5 24.1589 7.5 44.6356C7.61059 49.1984 8.68419 53.6864 10.6504 57.8053C12.6166 61.9242 15.4311 65.5811 18.9094 68.5364C19.4972 70.1642 17.6899 78.8287 12.1684 85.4095C11.804 85.838 11.5788 86.3673 11.5227 86.927C11.4666 87.4867 11.5823 88.0501 11.8543 88.5424C12.0962 88.9849 12.453 89.3538 12.8871 89.6104C13.3212 89.8669 13.8165 90.0015 14.3207 90C14.4493 90.0005 14.5778 89.992 14.7052 89.9744C23.7113 89.0041 32.3195 85.7459 39.711 80.5097C40.0507 80.2734 40.4215 80.0153 40.687 79.845C42.1247 80.2125 43.5861 80.5126 45.0589 80.7755C45.0463 81.0617 45 81.3474 45 81.6321C45 95.6287 60.1401 107.014 78.75 107.014C82.281 107.02 85.8 106.604 89.2319 105.773C89.3582 105.857 89.5029 105.959 89.6695 106.073C94.7926 109.624 100.728 111.828 106.927 112.48C107.039 112.494 107.151 112.501 107.264 112.5C107.717 112.502 108.163 112.381 108.552 112.149C108.942 111.917 109.261 111.584 109.476 111.185C109.715 110.746 109.814 110.243 109.76 109.746C109.706 109.248 109.502 108.779 109.174 108.4C106.616 105.457 105.046 101.785 104.686 97.9028ZM37.5696 77.4316C31.3131 81.8789 24.0942 84.785 16.5015 85.9131C21.3126 79.0613 24.6057 68.6151 21.5323 65.852C18.4158 63.2436 15.8879 60.0039 14.1155 56.3467C12.343 52.6895 11.3664 48.698 11.25 44.6356C11.25 26.2262 31.4374 11.25 56.25 11.25C81.0626 11.25 101.25 26.2262 101.25 44.6356C101.25 63.045 81.0626 78.0212 56.25 78.0212C51.1263 78.0324 46.023 77.3763 41.0687 76.0694C39.9619 75.7691 39.1095 76.3604 37.5696 77.4316ZM91.7816 102.973C90.672 102.217 89.9368 101.724 88.9288 101.981C85.6044 102.84 82.1838 103.272 78.75 103.264C62.2082 103.264 48.75 93.5596 48.75 81.6321C48.75 81.5306 48.7691 81.4286 48.7711 81.3268C51.2533 81.62 53.7505 81.7684 56.25 81.7712C73.4628 81.7712 88.6091 74.9343 97.2859 64.6445C104.49 68.7506 108.75 75.0151 108.75 81.6321C108.663 84.2624 108.013 86.8435 106.844 89.2012C105.674 91.5588 104.013 93.6383 101.971 95.2991C99.7668 97.2418 101.421 103.471 104.45 108.274C99.8923 107.448 95.5694 105.639 91.7816 102.973Z" fill="#DA8F75"/>
<path d="M63.946 37.0544C63.644 37.0538 63.3425 37.0268 63.0451 36.9738C62.0697 36.7627 61.1621 36.312 60.4043 35.6624C59.6465 35.0129 59.0624 34.1848 58.7046 33.2531C57.8868 31.2697 57.6676 29.0902 58.0738 26.9836C58.9482 22.0269 62.5096 18.656 66.1626 19.2968C67.1381 19.508 68.0456 19.9587 68.8034 20.6082C69.5612 21.2578 70.1453 22.0858 70.5031 23.0175C71.3216 25.0008 71.5412 27.1804 71.1348 29.2871C70.3327 33.8354 67.2739 37.0544 63.946 37.0544ZM65.2854 22.97C63.9689 22.97 62.2578 24.8523 61.7671 27.6355C61.4946 29.0103 61.6224 30.4345 62.1351 31.7389C62.3622 32.2516 62.8657 33.136 63.6961 33.2825C65.0465 33.5278 66.9233 31.5814 67.4415 28.6353C67.7141 27.2603 67.5861 25.8361 67.0725 24.5318C66.8464 24.0192 66.342 23.1348 65.5116 22.9883C65.4369 22.9757 65.3612 22.9695 65.2854 22.97Z" fill="#DA8F75"/>
<path d="M75.5454 46.6318C75.0245 46.6328 74.5075 46.5417 74.0183 46.3626C71.074 45.2896 69.8819 41.3858 71.3037 37.4783C71.8797 35.8188 72.929 34.3643 74.3223 33.2944C74.9828 32.7641 75.7648 32.4065 76.598 32.2537C77.4311 32.1009 78.2892 32.1578 79.0949 32.4191C82.0383 33.4903 83.2303 37.3923 81.8085 41.3016C81.4185 42.715 80.6121 43.9787 79.4956 44.929C78.3791 45.8794 77.0029 46.4726 75.5454 46.6318ZM77.5696 35.9036C77.1908 35.9351 76.8304 36.0806 76.536 36.3211C75.7453 36.9543 75.1525 37.8007 74.8276 38.7601C74.0622 40.8657 74.597 42.5833 75.3019 42.8397C75.9949 43.0887 77.5302 42.0908 78.2837 40.0198C79.05 37.9142 78.5154 36.1984 77.8112 35.9421C77.7334 35.9158 77.6517 35.9028 77.5696 35.9036Z" fill="#DA8F75"/>
<path d="M36.9575 46.6316C35.4999 46.4725 34.1237 45.8794 33.0071 44.929C31.8906 43.9786 31.0852 42.7148 30.6953 41.3014C29.2735 37.392 30.4646 33.4901 33.4098 32.4189C34.2151 32.157 35.073 32.0998 35.906 32.2526C36.739 32.4054 37.5207 32.7634 38.1806 33.2942C39.5738 34.3639 40.6229 35.8185 41.1982 37.4781C42.6209 41.3856 41.4288 45.2894 38.4864 46.3624C37.9964 46.5407 37.4789 46.6318 36.9575 46.6316ZM34.2191 40.0197C34.9744 42.0924 36.518 43.072 37.2028 42.8395C37.906 42.5831 38.4406 40.8656 37.6743 38.7599C37.3501 37.8004 36.7575 36.9539 35.9669 36.3209C35.7979 36.1643 35.5951 36.0487 35.3743 35.9829C35.1535 35.9172 34.9205 35.9032 34.6934 35.9419C33.9875 36.1982 33.4528 37.9139 34.2191 40.0197Z" fill="#DA8F75"/>
<path d="M48.5536 37.0548C45.2257 37.0548 42.1669 33.8358 41.3649 29.2874C40.9584 27.1807 41.178 25.0011 41.9966 23.0179C42.3543 22.0863 42.9383 21.2584 43.6959 20.6088C44.4535 19.9593 45.3609 19.5085 46.3362 19.2972C49.9947 18.6545 53.5515 22.0273 54.4258 26.984C54.8321 29.0906 54.6128 31.27 53.795 33.2535C53.4372 34.1854 52.8529 35.0134 52.095 35.663C51.337 36.3126 50.4293 36.7632 49.4536 36.9742C49.1565 37.0272 48.8554 37.0542 48.5536 37.0548ZM47.2133 22.9703C47.1376 22.9699 47.0619 22.9761 46.9872 22.9886C46.1577 23.1351 45.6532 24.0195 45.4272 24.5322C44.9137 25.8364 44.7856 27.2607 45.0582 28.6356C45.5782 31.5818 47.4788 33.5263 48.8027 33.2828C49.634 33.1363 50.1376 32.2519 50.3646 31.7392C50.8773 30.4348 51.0051 29.0107 50.7326 27.6358C50.2419 24.8526 48.5308 22.9703 47.2133 22.9703Z" fill="#DA8F75"/>
<path d="M67.0601 68.8987C65.9406 68.8991 64.8247 68.772 63.734 68.5198C62.3088 68.124 60.9454 67.5324 59.6827 66.762C58.6798 66.0787 57.538 65.626 56.3392 65.4364C55.1397 65.626 53.9971 66.0794 52.9939 66.7639C51.7313 67.5327 50.3687 68.1236 48.9445 68.5198C45.46 69.3292 40.4036 69.0435 37.6149 65.5627C36.3712 63.974 35.7566 61.9827 35.8887 59.9694C36.0208 57.9561 36.8902 56.0622 38.3308 54.6496C39.2038 53.9001 40.1459 53.2349 41.1442 52.6629C42.3385 52.0638 43.3838 51.2055 44.2039 50.1507C44.7356 49.2314 45.1595 48.2538 45.4674 47.2375C45.8854 45.8521 46.4904 44.5301 47.2655 43.308C48.3292 41.9415 49.7142 40.8592 51.2973 40.1573C52.8803 39.4554 54.6124 39.1559 56.3393 39.2852C61.8929 39.2852 64.4563 41.5228 65.6291 43.3978C66.3147 44.5839 66.8411 45.8553 67.1947 47.1789C67.4722 48.2791 67.9132 49.3314 68.503 50.3008C69.318 51.4278 70.4156 52.3202 71.6853 52.888C72.6421 53.3613 73.5359 53.9524 74.3459 54.6476C75.7868 56.0603 76.6565 57.9545 76.7889 59.968C76.9213 61.9815 76.3071 63.9733 75.0637 65.5625C74.0651 66.6831 72.8273 67.5648 71.4419 68.1423C70.0565 68.7198 68.5589 68.9783 67.0601 68.8987ZM56.3392 61.6862C58.183 61.8331 59.9583 62.4502 61.4955 63.4788C62.46 64.0763 63.4993 64.5436 64.5863 64.8686C67.1983 65.4747 70.5464 65.2018 72.1367 63.2188C72.7933 62.3795 73.124 61.3309 73.0678 60.2667C73.0116 59.2025 72.5723 58.1946 71.8309 57.429C71.2414 56.9387 70.5946 56.5219 69.9046 56.1876C68.1176 55.3455 66.5767 54.0587 65.4295 52.4504C64.6118 51.1686 63.9995 49.7667 63.6149 48.2957C63.349 47.281 62.9572 46.3036 62.4486 45.3862C61.4744 43.8262 59.4182 43.0351 56.3392 43.0351C55.2257 42.9455 54.1064 43.1148 53.0691 43.5296C52.0318 43.9445 51.1046 44.5937 50.3599 45.4265C49.7798 46.3796 49.3253 47.4037 49.0076 48.4733C48.6086 49.7721 48.0537 51.0177 47.3551 52.1831C46.2421 53.7214 44.787 54.98 43.1044 55.8598C42.3055 56.3141 41.5495 56.8399 40.8458 57.4309C40.1046 58.1962 39.6656 59.204 39.6097 60.2679C39.5538 61.3319 39.8849 62.3801 40.5418 63.2188C42.1312 65.2019 45.4793 65.4729 48.0922 64.8686C49.1785 64.5433 50.2174 64.0767 51.1822 63.4807C52.7191 62.4506 54.4949 61.8327 56.3392 61.6862Z" fill="#DA8F75"/>
</svg>
