<svg width="120" height="120" viewBox="0 0 120 120" fill="none" xmlns="http://www.w3.org/2000/svg">
<g clip-path="url(#clip0_94_3736)">
<path d="M54.4053 58.041C54.0728 58.0416 53.7462 57.9536 53.459 57.7861C53.1718 57.6186 52.9343 57.3776 52.7711 57.0879C52.7063 56.9727 52.6119 56.8767 52.4978 56.81C52.3836 56.7432 52.2538 56.708 52.1215 56.708C51.9893 56.708 51.8594 56.7432 51.7453 56.81C51.6311 56.8767 51.5368 56.9727 51.472 57.0879C51.3509 57.3023 51.1888 57.4907 50.9949 57.6425C50.801 57.7942 50.5791 57.9062 50.3419 57.9722C50.1048 58.0382 49.8569 58.0568 49.6125 58.0269C49.3681 57.9971 49.132 57.9195 48.9176 57.7984C48.7033 57.6773 48.5149 57.5152 48.3631 57.3213C48.2114 57.1274 48.0994 56.9056 48.0334 56.6684C47.9674 56.4312 47.9488 56.1833 47.9786 55.9389C48.0085 55.6946 48.0861 55.4584 48.2072 55.2441C48.5985 54.5503 49.1672 53.9731 49.855 53.5714C50.5428 53.1697 51.325 52.958 52.1215 52.958C52.918 52.958 53.7002 53.1697 54.388 53.5714C55.0758 53.9731 55.6445 54.5503 56.0359 55.2441C56.1968 55.5292 56.2803 55.8515 56.278 56.1789C56.2757 56.5063 56.1878 56.8274 56.0229 57.1103C55.858 57.3931 55.6219 57.6279 55.3381 57.7912C55.0543 57.9544 54.7327 58.0406 54.4053 58.041Z" fill="#DA8F75"/>
<path d="M70.1553 58.041C69.8228 58.0416 69.4962 57.9536 69.209 57.7861C68.9218 57.6186 68.6843 57.3776 68.5211 57.0879C68.4563 56.9727 68.362 56.8767 68.2478 56.81C68.1336 56.7432 68.0038 56.708 67.8715 56.708C67.7393 56.708 67.6094 56.7432 67.4953 56.81C67.3811 56.8767 67.2868 56.9727 67.222 57.0879C67.1009 57.3023 66.9388 57.4907 66.7449 57.6425C66.551 57.7942 66.3291 57.9062 66.0919 57.9722C65.8548 58.0382 65.6069 58.0568 65.3625 58.0269C65.1181 57.9971 64.882 57.9195 64.6677 57.7984C64.2347 57.5539 63.9166 57.1474 63.7834 56.6684C63.6502 56.1893 63.7127 55.677 63.9572 55.2441C64.3485 54.5503 64.9172 53.9731 65.605 53.5714C66.2928 53.1697 67.075 52.958 67.8715 52.958C68.668 52.958 69.4502 53.1697 70.138 53.5714C70.8258 53.9731 71.3945 54.5503 71.7859 55.2441C71.9468 55.5292 72.0303 55.8515 72.028 56.1789C72.0257 56.5063 71.9378 56.8274 71.7729 57.1102C71.608 57.3931 71.3719 57.6279 71.0881 57.7911C70.8043 57.9544 70.4827 58.0406 70.1553 58.041Z" fill="#DA8F75"/>
<path d="M111.504 33.1081C110.743 29.8239 109.246 26.7554 107.126 24.1342C105.006 21.5131 102.319 19.4077 99.266 17.9772C95.418 15.9788 91.1703 14.8699 86.8365 14.7323C82.5027 14.5948 78.1933 15.4321 74.2263 17.1825C68.6444 19.6397 63.7559 23.4378 59.9954 28.2393C56.2883 23.4265 51.3968 19.657 45.7983 17.2987L45.8377 17.2118C41.8636 15.4488 37.544 14.602 33.1985 14.734C28.8529 14.866 24.5927 15.9735 20.733 17.9744C17.68 19.4052 14.992 21.511 12.8718 24.1326C10.7516 26.7543 9.25477 29.8233 8.4942 33.108C1.57098 68.4319 52.7407 101.241 58.5983 104.865C59.0183 105.128 59.5037 105.267 59.999 105.267C60.4944 105.267 60.9798 105.128 61.3998 104.865C67.5103 101.009 73.3682 96.766 78.9376 92.1626C79.0073 92.1135 79.0735 92.0596 79.1357 92.0013C95.4315 78.5371 116.063 56.3699 111.504 33.1081ZM59.999 101.319C54.6333 97.8981 49.4639 94.1784 44.5149 90.1778C45.8932 87.0591 47.7772 84.1896 50.0911 81.6853C56.5396 83.7197 63.4581 83.7199 69.9067 81.6857C72.2209 84.1897 74.105 87.0592 75.4828 90.178C70.5339 94.1785 65.3646 97.8981 59.999 101.319ZM59.9999 42.1067C73.1167 42.1067 83.7881 50.4856 83.7881 60.7853C83.7881 71.0832 73.1167 79.4612 59.9999 79.4612C46.8822 79.4612 36.2099 71.0832 36.2099 60.7853C36.21 50.4857 46.8822 42.1067 59.9999 42.1067ZM37.2693 48.1457V37.0531C37.3435 37.0961 37.4167 37.1419 37.4872 37.1904L45.0663 41.9679C42.0942 43.5067 39.4469 45.6042 37.2693 48.1457ZM82.7289 48.1453C80.5511 45.6036 77.9034 43.5058 74.931 41.9669L82.5925 37.1354C82.6365 37.1045 82.682 37.0757 82.7289 37.0494V48.1453ZM78.4745 87.7049C77.1907 85.0193 75.5658 82.5107 73.64 80.241C81.9294 76.3716 87.5381 69.1085 87.5381 60.7854C87.5292 58.7101 87.1711 56.6511 86.4788 54.6946V36.8242C86.5606 36.1435 86.4412 35.4537 86.1353 34.8402C85.8294 34.2266 85.3504 33.7161 84.7576 33.3717C84.0523 33.1144 83.2936 33.0388 82.5513 33.1517C81.8091 33.2647 81.1072 33.5626 80.5104 34.0181L70.7823 40.151C63.7929 37.7587 56.2064 37.7587 49.217 40.151L39.569 34.0721C38.9657 33.5986 38.2522 33.286 37.4951 33.1635C36.738 33.041 35.9622 33.1126 35.2404 33.3717C34.6476 33.7161 34.1686 34.2266 33.8627 34.8402C33.5568 35.4537 33.4374 36.1435 33.5192 36.8242V54.695C32.8269 56.6513 32.4689 58.7103 32.46 60.7855C32.46 69.1082 38.0686 76.3708 46.3578 80.2405C44.4321 82.5105 42.8074 85.0195 41.5239 87.7053C26.2033 74.7478 8.11162 54.5595 12.1745 33.8297C12.8286 31.1025 14.0925 28.5592 15.8713 26.391C17.65 24.2228 19.8973 22.4861 22.444 21.3117C26.0801 19.4465 30.1073 18.4715 34.1939 18.4671C37.693 18.4567 41.1532 19.2005 44.339 20.6478C49.7015 23.0309 54.3292 26.8048 57.7423 31.5782C57.9955 31.9423 58.3329 32.2398 58.7259 32.4452C59.1188 32.6506 59.5557 32.7579 59.9991 32.7579C60.4425 32.7579 60.8794 32.6506 61.2724 32.4452C61.6653 32.2398 62.0028 31.9423 62.2559 31.5782C65.451 27.046 69.7665 23.4195 74.7811 21.0524L75.7224 20.6211C79.1865 19.1159 82.9413 18.3974 86.7165 18.5172C90.4916 18.637 94.1932 19.5923 97.555 21.3142C100.101 22.4881 102.349 24.2243 104.127 26.392C105.906 28.5598 107.17 31.1027 107.824 33.8294C111.886 54.5591 93.7951 74.7471 78.4745 87.7049Z" fill="#DA8F75"/>
<path d="M55.5873 74.3872C57.2146 74.3907 58.7852 73.7899 59.9946 72.7013C60.7895 73.4136 61.7453 73.9227 62.7799 74.1849C63.8146 74.4471 64.8974 74.4546 65.9356 74.2068C66.9738 73.959 67.9365 73.4632 68.7412 72.762C69.5459 72.0608 70.1687 71.175 70.5562 70.1804C70.6457 69.951 70.6892 69.7062 70.6842 69.46C70.6792 69.2138 70.6257 68.971 70.5268 68.7454C70.428 68.5199 70.2856 68.316 70.108 68.1455C69.9303 67.975 69.7208 67.8411 69.4914 67.7515C69.262 67.6619 69.0172 67.6184 68.771 67.6235C68.5248 67.6285 68.282 67.682 68.0564 67.7808C67.8309 67.8797 67.627 68.022 67.4565 68.1997C67.286 68.3774 67.1521 68.5869 67.0625 68.8163C66.9123 69.2093 66.6764 69.564 66.3719 69.8544C66.0674 70.1448 65.7021 70.3638 65.3024 70.4953C64.9027 70.6269 64.4787 70.6677 64.0613 70.6149C63.6438 70.562 63.2434 70.4168 62.8891 70.1898C63.1734 69.9666 63.436 69.717 63.6732 69.4443C64.5413 68.4169 65.0939 67.1604 65.2644 65.8262C65.2938 65.5403 65.257 65.2515 65.157 64.9821C65.057 64.7128 64.8964 64.47 64.6876 64.2725C64.0578 63.6931 63.3173 63.2472 62.5106 62.9617C61.7039 62.6761 60.8478 62.5567 59.9937 62.6108C59.1391 62.5557 58.2821 62.6742 57.4744 62.9591C56.6668 63.2441 55.9252 63.6896 55.2943 64.2688C55.0861 64.4664 54.9259 64.7091 54.8262 64.9783C54.7266 65.2475 54.69 65.536 54.7194 65.8216C54.8909 67.1577 55.4451 68.4158 56.3151 69.4443C56.5524 69.7172 56.815 69.967 57.0994 70.1902C56.7451 70.4171 56.3447 70.5622 55.9273 70.6149C55.5099 70.6677 55.0861 70.6268 54.6865 70.4952C54.2869 70.3636 53.9216 70.1447 53.6172 69.8542C53.3128 69.5638 53.077 69.2092 52.9268 68.8163C52.8372 68.5869 52.7033 68.3774 52.5328 68.1997C52.3623 68.022 52.1584 67.8797 51.9328 67.7808C51.7073 67.682 51.4645 67.6285 51.2183 67.6235C50.9721 67.6184 50.7273 67.6619 50.4979 67.7515C50.2685 67.8411 50.059 67.975 49.8813 68.1455C49.7037 68.316 49.5613 68.5199 49.4625 68.7454C49.3636 68.971 49.3101 69.2138 49.3051 69.46C49.3 69.7062 49.3436 69.951 49.4331 70.1804C49.9118 71.4227 50.7566 72.4901 51.8556 73.2414C52.9547 73.9927 54.256 74.3923 55.5873 74.3872ZM61.1839 66.4771C61.0836 66.6655 60.9632 66.8426 60.825 67.0053C60.6047 67.2698 60.3177 67.4705 59.9937 67.5867C59.6699 67.4707 59.3831 67.2699 59.1633 67.0053C59.0239 66.842 58.9027 66.6639 58.8017 66.4744C59.5876 66.3123 60.3984 66.3132 61.1839 66.4771Z" fill="#DA8F75"/>
</g>
<defs>
<clipPath id="clip0_94_3736">
<rect width="120" height="120" fill="white"/>
</clipPath>
</defs>
</svg>
