<svg width="120" height="120" viewBox="0 0 120 120" fill="none" xmlns="http://www.w3.org/2000/svg">
<path d="M90.1705 55.0778H65.9062C65.66 55.0778 65.4162 55.0294 65.1886 54.9352C64.9611 54.841 64.7544 54.7029 64.5803 54.5287C64.4062 54.3546 64.268 54.1479 64.1738 53.9204C64.0796 53.6929 64.0312 53.449 64.0313 53.2028V40.6582C64.0312 40.412 64.0796 40.1681 64.1738 39.9406C64.268 39.7131 64.4062 39.5064 64.5803 39.3322C64.7544 39.1581 64.9611 39.02 65.1886 38.9258C65.4162 38.8316 65.66 38.7831 65.9062 38.7832H79.6227C79.8901 38.7834 80.1543 38.8406 80.3978 38.9511C80.6412 39.0617 80.8583 39.2229 81.0344 39.4241L91.7232 51.6573C91.9839 51.9556 92.1531 52.3227 92.2108 52.7146C92.2684 53.1066 92.212 53.5068 92.0483 53.8675C91.8845 54.2283 91.6203 54.5342 91.2874 54.7488C90.9544 54.9634 90.5666 55.0776 90.1705 55.0778ZM67.7812 51.3278H86.4553L78.7712 42.5332H67.7812V51.3278Z" fill="#DA8F75"/>
<path d="M109.265 53.6464L105.989 52.5441L99.9511 50.8925L85.6332 34.2775C85.1883 33.759 84.6366 33.3429 84.0159 33.0575C83.3951 32.7721 82.7201 32.6242 82.0369 32.624H16.8047C15.6312 32.6266 14.4924 33.0225 13.5703 33.7484C12.6482 34.4743 11.996 35.4884 11.7181 36.6286L8.26195 50.5208C7.96237 51.724 7.8108 52.9594 7.81058 54.1993V73.7184C7.8051 75.2439 8.40495 76.7092 9.47854 77.7929C10.5521 78.8766 12.0118 79.4902 13.5372 79.499H22.3376C22.6856 81.6951 23.8057 83.6949 25.4965 85.1389C27.1872 86.5829 29.3377 87.3762 31.5612 87.3762C33.7847 87.3762 35.9352 86.5829 37.626 85.1389C39.3167 83.6949 40.4368 81.6951 40.7848 79.499H84.2126C84.5606 81.6951 85.6807 83.6949 87.3715 85.1389C89.0622 86.5829 91.2127 87.3762 93.4362 87.3762C95.6597 87.3762 97.8102 86.5829 99.501 85.1389C101.192 83.6949 102.312 81.6951 102.66 79.499H106.46C107.985 79.4902 109.445 78.8766 110.518 77.7929C111.592 76.7092 112.192 75.2439 112.186 73.7184V57.7389C112.188 56.8369 111.908 55.9569 111.384 55.2228C110.86 54.4887 110.119 53.9373 109.265 53.6464ZM31.5612 83.6262C30.4487 83.6262 29.3612 83.2963 28.4361 82.6782C27.5111 82.0602 26.7901 81.1817 26.3644 80.1538C25.9386 79.126 25.8272 77.995 26.0443 76.9039C26.2613 75.8127 26.7971 74.8104 27.5837 74.0238C28.3704 73.2371 29.3727 72.7014 30.4638 72.4843C31.555 72.2673 32.686 72.3787 33.7138 72.8044C34.7416 73.2302 35.6201 73.9511 36.2382 74.8762C36.8563 75.8012 37.1862 76.8887 37.1862 78.0012C37.1846 79.4926 36.5914 80.9224 35.5369 81.9769C34.4823 83.0315 33.0526 83.6246 31.5612 83.6262ZM93.4362 83.6262C92.3237 83.6262 91.2362 83.2963 90.3111 82.6782C89.3861 82.0602 88.6651 81.1817 88.2394 80.1538C87.8136 79.126 87.7022 77.995 87.9193 76.9039C88.1363 75.8127 88.6721 74.8104 89.4587 74.0238C90.2454 73.2371 91.2477 72.7014 92.3388 72.4843C93.43 72.2673 94.561 72.3787 95.5888 72.8044C96.6166 73.2302 97.4951 73.9511 98.1132 74.8762C98.7313 75.8012 99.0612 76.8887 99.0612 78.0012C99.0596 79.4926 98.4664 80.9224 97.4119 81.9769C96.3573 83.0315 94.9276 83.6246 93.4362 83.6262ZM108.436 73.7184C108.442 74.2495 108.238 74.7615 107.867 75.1421C107.497 75.5227 106.991 75.7409 106.46 75.749H102.507C102.011 73.7175 100.847 71.9112 99.2027 70.6197C97.558 69.3282 95.5274 68.6262 93.4362 68.6262C91.345 68.6262 89.3144 69.3282 87.6697 70.6197C86.025 71.9112 84.8615 73.7175 84.3656 75.749H40.6318C40.1359 73.7175 38.9724 71.9112 37.3277 70.6197C35.683 69.3282 33.6524 68.6262 31.5612 68.6262C29.47 68.6262 27.4394 69.3282 25.7947 70.6197C24.15 71.9112 22.9865 73.7175 22.4906 75.749H13.5372C13.0061 75.7409 12.4999 75.5227 12.1294 75.1421C11.7589 74.7615 11.5544 74.2495 11.5606 73.7184V54.1993C11.5608 53.2649 11.6748 52.334 11.9003 51.4271L15.3564 37.5349C15.4335 37.2075 15.618 36.9152 15.8805 36.7048C16.143 36.4945 16.4683 36.378 16.8047 36.374H82.037C82.1806 36.3748 82.3224 36.4064 82.4527 36.4667C82.583 36.5271 82.6988 36.6147 82.7923 36.7238L97.1103 53.3388C97.6037 53.9137 98.2586 54.3271 98.9898 54.5253L104.897 56.1293L108.063 57.1986C108.174 57.2383 108.269 57.3117 108.336 57.4086C108.403 57.5055 108.438 57.621 108.436 57.7388L108.436 73.7184Z" fill="#DA8F75"/>
<path d="M42.3081 49.3759C42.0905 49.3761 41.8733 49.3571 41.659 49.3191C39.1102 48.8687 37.5684 45.9353 38.1498 42.6394C38.373 41.2638 38.9943 39.9837 39.9369 38.9572C40.4031 38.4262 40.995 38.0206 41.6584 37.7775C42.3218 37.5344 43.0356 37.4616 43.7345 37.5656C46.2824 38.016 47.8241 40.9494 47.2437 44.2434C47.0205 45.6196 46.3992 46.9003 45.4566 47.9275C45.0576 48.37 44.5726 48.7266 44.0313 48.9756C43.49 49.2246 42.9037 49.3608 42.3081 49.3759ZM43.0771 41.257C42.8501 41.257 42.0801 41.9454 41.843 43.2914C41.7214 43.6892 41.7006 44.1111 41.7826 44.5189C41.8646 44.9268 42.0467 45.3078 42.3127 45.6278H42.3164C42.5435 45.6278 43.3134 44.9375 43.5505 43.5916C43.6718 43.1941 43.6924 42.7726 43.6105 42.3651C43.5285 41.9575 43.3465 41.5768 43.0809 41.2571L43.0771 41.257Z" fill="#DA8F75"/>
<path d="M48.9959 54.8975C48.604 54.8983 48.2151 54.8301 47.8468 54.696C47.271 54.4695 46.7608 54.1028 46.3624 53.6293C45.964 53.1558 45.6901 52.5904 45.5653 51.9842C45.3253 50.8418 45.4097 49.655 45.809 48.5581C46.2083 47.4611 46.9066 46.4977 47.8249 45.777C48.3023 45.3782 48.876 45.1118 49.4887 45.0045C50.1014 44.8971 50.7315 44.9525 51.3161 45.1652C51.9006 45.3778 52.4191 45.7403 52.8196 46.2162C53.2201 46.6921 53.4886 47.2649 53.5982 47.8772C53.8538 49.0183 53.7695 50.2094 53.3556 51.3031C52.9696 52.4074 52.2684 53.3744 51.3386 54.0845C50.6643 54.5982 49.8435 54.883 48.9959 54.8975ZM49.9727 48.855C49.6872 49.1305 49.4684 49.4674 49.3327 49.8403C49.1971 50.2131 49.1482 50.6119 49.19 51.0065C49.4833 50.7375 49.7038 50.3986 49.8308 50.0213L49.8317 50.0195C49.9768 49.6496 50.0254 49.2488 49.9727 48.855Z" fill="#DA8F75"/>
<path d="M26.7606 54.8963C25.9127 54.882 25.0915 54.5972 24.4169 54.0833C23.4874 53.3732 22.7865 52.4062 22.4009 51.3019C21.8606 50.2172 21.7717 48.9627 22.1536 47.8126C22.5354 46.6625 23.357 45.7104 24.4388 45.1642C26.5574 44.3915 28.9753 45.8857 29.9476 48.5572C30.4876 49.642 30.5764 50.8966 30.1943 52.0466C29.8123 53.1967 28.9906 54.1488 27.9087 54.6949C27.5408 54.8289 27.1522 54.897 26.7606 54.8963ZM25.7829 48.8538C25.7303 49.2483 25.7788 49.6496 25.9239 50.0202C26.0504 50.3977 26.2719 50.7367 26.5657 51.0053C26.608 50.6107 26.5594 50.2117 26.4237 49.8388C26.2881 49.4659 26.0689 49.129 25.7829 48.8538Z" fill="#DA8F75"/>
<path d="M33.4517 49.3761C32.856 49.361 32.2697 49.2248 31.7284 48.9758C31.1871 48.7268 30.7022 48.3702 30.3032 47.9278C29.3604 46.9 28.7394 45.6186 28.517 44.2418C27.9356 40.9496 29.4774 38.0163 32.0262 37.5658C32.7249 37.4628 33.4382 37.5361 34.1014 37.7792C34.7645 38.0222 35.3563 38.4273 35.8229 38.9574C36.7655 39.9839 37.3868 41.264 37.61 42.6397C38.1913 45.9356 36.6496 48.8689 34.1008 49.3194C33.8865 49.3573 33.6693 49.3763 33.4517 49.3761ZM32.6808 41.2572H32.678C32.4129 41.5772 32.2314 41.958 32.1497 42.3655C32.0681 42.773 32.0889 43.1943 32.2102 43.5917C32.4473 44.9357 33.2154 45.628 33.4452 45.628H33.448C33.7135 45.3078 33.8953 44.9267 33.9772 44.5189C34.059 44.1111 34.0382 43.6894 33.9167 43.2916C33.6686 41.8834 32.8886 41.2572 32.6808 41.2572Z" fill="#DA8F75"/>
<path d="M44.0976 67.732C43.3963 67.7329 42.6971 67.6537 42.0138 67.4958C41.1208 67.2532 40.2662 66.8865 39.4751 66.4063C39.0043 66.0934 38.4812 65.8676 37.9306 65.7398C37.3803 65.8676 36.8573 66.0927 36.3861 66.4045C35.5954 66.8858 34.7407 67.2532 33.8473 67.4957C32.561 67.8648 31.1984 67.8755 29.9065 67.5266C28.6145 67.1778 27.4424 66.4827 26.5167 65.5163C25.6615 64.4473 25.2383 63.0963 25.3309 61.7304C25.4234 60.3645 26.025 59.0829 27.0166 58.139C27.5558 57.6736 28.138 57.2604 28.7552 56.9049C29.3371 56.614 29.8519 56.2049 30.2667 55.7037C30.5377 55.225 30.7548 54.7178 30.914 54.1913C31.1782 53.3272 31.5585 52.503 32.0446 51.7413C32.7285 50.8445 33.6242 50.1315 34.6515 49.6662C35.6787 49.2009 36.8055 48.9979 37.9305 49.0753C39.0887 48.9527 40.2585 49.1424 41.3185 49.6248C42.3785 50.1071 43.29 50.8645 43.9584 51.8182C44.3908 52.5598 44.7233 53.3552 44.9472 54.1839C45.0851 54.7397 45.3029 55.2726 45.5935 55.766C45.9924 56.3134 46.5312 56.7435 47.1535 57.0111C47.7626 57.314 48.3308 57.693 48.8445 58.139C49.836 59.0826 50.4375 60.3637 50.5303 61.7293C50.623 63.0949 50.2001 64.4456 49.3453 65.5145C48.6934 66.2547 47.8831 66.8384 46.9745 67.2223C46.066 67.6062 45.0827 67.7804 44.0976 67.732ZM37.9306 61.9898C39.1282 62.0712 40.2845 62.461 41.2868 63.1214C41.7805 63.4279 42.3108 63.6709 42.8652 63.8447C43.4664 64.0403 44.1073 64.0809 44.7284 63.9628C45.3496 63.8446 45.9308 63.5716 46.4183 63.169C46.668 62.8423 46.7957 62.4386 46.7793 62.0277C46.7629 61.6168 46.6035 61.2245 46.3286 60.9187C46.0349 60.6798 45.7141 60.4764 45.3728 60.3126C44.2336 59.7683 43.2518 58.9428 42.52 57.9139C41.999 57.1092 41.6096 56.2265 41.3664 55.2992C41.2307 54.7801 41.0334 54.2791 40.7787 53.8069C40.2724 52.9957 38.9504 52.8254 37.9305 52.8254C37.4178 52.7779 36.9009 52.846 36.418 53.0248C35.935 53.2035 35.4983 53.4883 35.14 53.8581C34.8471 54.3506 34.6167 54.8778 34.4543 55.4273C34.2037 56.2354 33.856 57.0101 33.4188 57.7345C32.714 58.7231 31.7883 59.5338 30.7153 60.102C30.2975 60.3397 29.9014 60.6136 29.5315 60.9205C29.2568 61.2265 29.0977 61.6189 29.0817 62.0298C29.0656 62.4407 29.1936 62.8444 29.4436 63.1709C29.9312 63.5732 30.5126 63.846 31.1337 63.9637C31.7548 64.0815 32.3956 64.0406 32.9967 63.8447C33.5507 63.6697 34.0809 63.4268 34.5751 63.1214C35.5767 62.4601 36.733 62.0701 37.9306 61.9898Z" fill="#DA8F75"/>
</svg>
