<svg width="120" height="120" viewBox="0 0 120 120" fill="none" xmlns="http://www.w3.org/2000/svg">
<path d="M87.6484 86.9238C84.8671 86.9238 82.1483 86.0991 79.8357 84.5539C77.5232 83.0087 75.7207 80.8124 74.6564 78.2428C73.592 75.6732 73.3135 72.8457 73.8562 70.1179C74.3988 67.39 75.7381 64.8843 77.7048 62.9176C79.6714 60.951 82.1771 59.6116 84.905 59.069C87.6328 58.5264 90.4603 58.8049 93.0299 59.8693C95.5995 60.9336 97.7958 62.7361 99.341 65.0486C100.886 67.3612 101.711 70.08 101.711 72.8613C101.707 76.5897 100.224 80.1642 97.5876 82.8005C94.9513 85.4369 91.3768 86.9198 87.6484 86.9238ZM87.6484 62.5488C85.6088 62.5488 83.615 63.1537 81.9191 64.2868C80.2232 65.42 78.9015 67.0305 78.1209 68.9149C77.3404 70.7993 77.1362 72.8728 77.5341 74.8732C77.932 76.8736 78.9142 78.7111 80.3564 80.1534C81.7986 81.5956 83.6361 82.5778 85.6366 82.9757C87.637 83.3736 89.7105 83.1694 91.5949 82.3888C93.4792 81.6083 95.0898 80.2865 96.223 78.5907C97.3561 76.8948 97.9609 74.901 97.9609 72.8613C97.9577 70.1273 96.8702 67.5061 94.9369 65.5729C93.0036 63.6396 90.3825 62.5521 87.6484 62.5488Z" fill="#DA8F75"/>
<path d="M44.2738 42.9367C44.0197 42.9368 43.766 42.9148 43.5157 42.8708C42.706 42.6992 41.9518 42.3285 41.3214 41.7922C40.6909 41.2559 40.2041 40.5709 39.9049 39.7991C39.2774 38.2154 39.1018 36.4885 39.3976 34.8109C39.6934 33.1332 40.449 31.5706 41.5803 30.2969C42.1075 29.6514 42.7972 29.1581 43.5784 28.8678C44.3596 28.5775 45.2041 28.5007 46.0249 28.6454C46.8456 28.79 47.613 29.1509 48.2479 29.6908C48.8828 30.2307 49.3623 30.93 49.637 31.7169C50.2903 33.2944 50.4666 35.0289 50.1442 36.7056C49.5015 40.3576 47.0039 42.9367 44.2738 42.9367ZM45.2791 32.3303C44.889 32.3852 44.5343 32.5861 44.2866 32.8924C43.6693 33.629 43.2564 34.5149 43.0893 35.4613C42.9222 36.4077 43.0067 37.3815 43.3345 38.2849C43.5579 38.7912 43.8691 39.1254 44.1676 39.1775C44.803 39.2984 46.0902 38.1101 46.4527 36.0538C46.6424 35.1087 46.5566 34.129 46.2056 33.2312C45.9822 32.725 45.6709 32.3908 45.3724 32.3386C45.3416 32.333 45.3104 32.3302 45.2791 32.3303Z" fill="#DA8F75"/>
<path d="M53.0027 50.1492C52.5574 50.1497 52.1155 50.072 51.6972 49.9194C49.2344 49.0222 48.2163 45.8233 49.3772 42.6354C49.8422 41.2995 50.6889 40.1293 51.8125 39.27C52.3701 38.8246 53.0301 38.5254 53.7325 38.3994C54.4349 38.2734 55.1577 38.3247 55.8353 38.5485C58.2963 39.443 59.3162 42.6428 58.1571 45.8306C57.8315 46.9849 57.1655 48.0161 56.246 48.7862C55.3265 49.5562 54.1962 50.0312 53.0027 50.1492ZM54.5298 42.0696C54.3437 42.0949 54.1688 42.1734 54.0263 42.2958C53.5039 42.7185 53.1132 43.2817 52.9002 43.919C52.3765 45.3591 52.8141 46.3351 52.9789 46.3955C53.1584 46.4395 54.1068 45.9936 54.6342 44.5489C55.1579 43.1078 54.7184 42.1319 54.5536 42.0724L54.5298 42.0696Z" fill="#DA8F75"/>
<path d="M23.9546 50.146C22.9693 50.1274 22.0155 49.7951 21.2318 49.1975C20.1239 48.3232 19.2812 47.1575 18.7984 45.8313C18.3156 44.505 18.2116 43.0705 18.4981 41.6884C18.6391 40.9882 18.9525 40.3342 19.4101 39.7857C19.8676 39.2372 20.4547 38.8115 21.1183 38.5472C21.7964 38.3243 22.5194 38.2736 23.2219 38.3997C23.9245 38.5258 24.5847 38.8247 25.143 39.2696C26.2508 40.1441 27.0933 41.3097 27.5761 42.636C28.0589 43.9622 28.163 45.3967 27.8767 46.7787C27.7356 47.4788 27.4221 48.1326 26.9646 48.6809C26.507 49.2292 25.92 49.6548 25.2565 49.919C24.8391 50.07 24.3985 50.1468 23.9546 50.146ZM22.4257 42.0684L22.4 42.0721C22.257 42.2073 22.1652 42.3878 22.14 42.583C22.0113 43.242 22.0742 43.9242 22.3213 44.5486C22.5339 45.1851 22.924 45.7486 23.4456 46.1709C23.7312 46.3806 23.9308 46.4145 23.9747 46.3943C24.015 46.3806 24.1487 46.2323 24.2348 45.8843C24.3446 45.2243 24.2821 44.5471 24.0534 43.9184C23.8246 43.2896 23.4374 42.7306 22.9292 42.2954C22.7862 42.1737 22.6116 42.095 22.4257 42.0684Z" fill="#DA8F75"/>
<path d="M32.6818 42.9365C29.9518 42.9374 27.456 40.3584 26.8133 36.7054C26.4909 35.0287 26.6672 33.2943 27.3205 31.7167C27.6197 30.945 28.1065 30.26 28.737 29.7237C29.3674 29.1874 30.1216 28.8167 30.9314 28.6451C33.9563 28.1114 36.8567 30.8213 37.5579 34.8103C37.8804 36.487 37.704 38.2215 37.0507 39.799C36.7516 40.5707 36.2648 41.2557 35.6343 41.792C35.0039 42.3283 34.2497 42.699 33.44 42.8706C33.1897 42.9146 32.936 42.9367 32.6818 42.9365ZM31.6784 32.3301C31.6465 32.33 31.6146 32.3328 31.5832 32.3384C31.2848 32.3906 30.9735 32.7247 30.7501 33.231C30.4005 34.1292 30.3154 35.1086 30.5047 36.0536C30.8673 38.1089 32.1362 39.2918 32.788 39.1773C33.0865 39.1252 33.3978 38.791 33.6212 38.2847C33.9707 37.3866 34.0559 36.4071 33.8665 35.4621C33.5205 33.5002 32.3632 32.3301 31.6784 32.3301Z" fill="#DA8F75"/>
<path d="M30.4766 66.9164C29.2776 66.9781 28.0801 66.7688 26.9731 66.3041C25.8662 65.8394 24.8782 65.1312 24.0825 64.2321C23.0748 62.9427 22.5778 61.3271 22.6866 59.6943C22.7954 58.0614 23.5023 56.526 24.6721 55.3817C25.3508 54.7988 26.0828 54.2811 26.8584 53.8354C27.6957 53.4159 28.4317 52.8192 29.0153 52.0867C29.3964 51.4246 29.6999 50.7208 29.9199 49.9892C30.25 48.9082 30.7243 47.8766 31.3299 46.9222C32.1713 45.8303 33.27 44.9637 34.5279 44.3999C35.7858 43.8361 37.1638 43.5927 38.5388 43.6913H38.5443C42.9388 43.6913 44.9877 45.494 45.9326 47.0064C46.4686 47.9327 46.8817 48.925 47.1612 49.9581C47.3578 50.7413 47.6687 51.4912 48.0841 52.1837C48.6564 52.9739 49.4287 53.5977 50.3216 53.991C51.0746 54.3645 51.7778 54.8311 52.4145 55.3798C53.585 56.5243 54.2925 58.0601 54.4016 59.6934C54.5107 61.3268 54.0138 62.943 53.0059 64.233C50.7684 67.0244 46.751 67.2588 44.0081 66.6216C42.8934 66.3137 41.8267 65.8527 40.8386 65.252C40.1477 64.7819 39.3662 64.4613 38.5443 64.3107C37.7223 64.4613 36.9408 64.7819 36.2499 65.252C35.2619 65.8528 34.1952 66.3135 33.0804 66.6207C32.2264 66.8174 31.3529 66.9166 30.4766 66.9164ZM38.5405 47.4413C37.7779 47.376 37.0105 47.4861 36.297 47.7632C35.5836 48.0403 34.943 48.477 34.4243 49.0398C34.0126 49.7252 33.689 50.4597 33.4612 51.2261C33.1476 52.2384 32.7136 53.2094 32.1685 54.1182C31.2944 55.3379 30.1468 56.3359 28.8176 57.0324C28.2414 57.3602 27.6955 57.7386 27.1862 58.163C26.7192 58.6617 26.445 59.3102 26.4124 59.9925C26.3799 60.6749 26.5912 61.3466 27.0085 61.8874C27.7093 62.5058 28.5591 62.9309 29.4742 63.1207C30.3894 63.3105 31.3382 63.2584 32.2271 62.9695C33.0038 62.7326 33.7466 62.3963 34.4371 61.9689C35.6634 61.1564 37.0774 60.6716 38.5442 60.5607C40.011 60.6719 41.4249 61.1566 42.6512 61.9689C43.3411 62.3962 44.0833 62.7326 44.8595 62.9695C45.7487 63.2575 46.6975 63.3093 47.6128 63.1197C48.528 62.9302 49.3782 62.5058 50.0799 61.8883C50.4974 61.347 50.7086 60.6747 50.6758 59.9918C50.6429 59.3089 50.3681 58.66 49.9005 58.1612C49.4835 57.8186 49.0275 57.5267 48.5418 57.2915C47.1296 56.6248 45.9131 55.6054 45.0097 54.3316C44.3652 53.328 43.8832 52.229 43.5815 51.075C43.3906 50.3499 43.1121 49.6508 42.752 48.9931C42.2234 48.4201 41.5664 47.9806 40.8349 47.7108C40.1034 47.4411 39.3184 47.3487 38.5443 47.4413H38.5405Z" fill="#DA8F75"/>
<path d="M87.1016 31.8145H75.8516C75.3543 31.8145 74.8774 31.6169 74.5257 31.2653C74.1741 30.9136 73.9766 30.4367 73.9766 29.9395C73.9766 29.4422 74.1741 28.9653 74.5257 28.6136C74.8774 28.262 75.3543 28.0645 75.8516 28.0645H87.1016C87.5988 28.0645 88.0758 28.262 88.4274 28.6136C88.779 28.9653 88.9766 29.4422 88.9766 29.9395C88.9766 30.4367 88.779 30.9136 88.4274 31.2653C88.0758 31.6169 87.5988 31.8145 87.1016 31.8145Z" fill="#DA8F75"/>
<path d="M94.6016 41.1895H68.3516C67.8543 41.1895 67.3774 40.9919 67.0257 40.6403C66.6741 40.2886 66.4766 39.8117 66.4766 39.3145C66.4766 38.8172 66.6741 38.3403 67.0257 37.9886C67.3774 37.637 67.8543 37.4395 68.3516 37.4395H94.6016C95.0988 37.4395 95.5758 37.637 95.9274 37.9886C96.279 38.3403 96.4766 38.8172 96.4766 39.3145C96.4766 39.8117 96.279 40.2886 95.9274 40.6403C95.5758 40.9919 95.0988 41.1895 94.6016 41.1895Z" fill="#DA8F75"/>
<path d="M107.654 76.9002C107.845 76.6075 108.063 76.3346 108.308 76.0854C109.237 75.2545 109.817 74.1029 109.932 72.8618C109.817 71.6209 109.237 70.4694 108.308 69.6382C108.075 69.3782 107.722 68.9864 107.676 68.9205C107.737 68.5607 107.838 68.2088 107.977 67.8713C108.512 66.7681 108.606 65.5022 108.24 64.3318C107.667 63.2325 106.694 62.3949 105.521 61.9918C105.199 61.839 104.714 61.6082 104.644 61.5643C104.567 61.2127 104.527 60.854 104.523 60.4941C104.509 59.7502 104.38 59.0129 104.142 58.3079V18.1719C104.141 16.6805 103.548 15.2507 102.493 14.1962C101.438 13.1417 100.009 12.5485 98.5173 12.5469H15.6914C14.2001 12.5485 12.7703 13.1417 11.7157 14.1962C10.6612 15.2507 10.068 16.6805 10.0664 18.1719V77.3314C10.068 78.8227 10.6612 80.2525 11.7157 81.3071C12.7703 82.3616 14.2001 82.9548 15.6914 82.9564H68.3818C68.8245 83.2517 69.2905 83.5105 69.7753 83.73C70.0957 83.8829 70.5809 84.1146 70.6523 84.1594C70.729 84.5111 70.7695 84.8697 70.7732 85.2297C70.6981 86.4604 71.0979 87.6732 71.8901 88.618C72.7082 89.3407 73.7682 89.7291 74.8595 89.7061C74.5336 90.726 74.2241 91.7505 73.8658 92.7553C72.8569 95.5769 71.6996 98.384 70.4252 101.098C70.267 101.436 70.2131 101.813 70.2702 102.181C70.3272 102.55 70.4928 102.893 70.7456 103.167C70.9985 103.441 71.3272 103.633 71.6899 103.719C72.0525 103.805 72.4326 103.782 72.7817 103.651L78.3464 101.564L81.3988 106.557C81.5665 106.831 81.8017 107.057 82.0819 107.214C82.3621 107.371 82.6779 107.454 82.9991 107.454L83.0522 107.453C83.382 107.444 83.7035 107.348 83.9841 107.175C84.2648 107.001 84.4948 106.757 84.6508 106.466C85.693 104.526 86.63 102.518 87.4945 100.495C88.3588 102.518 89.2959 104.526 90.338 106.466C90.494 106.757 90.7239 107.001 91.0046 107.175C91.2853 107.348 91.6068 107.444 91.9365 107.453L91.9896 107.454C92.3109 107.454 92.6267 107.371 92.9069 107.214C93.1871 107.057 93.4223 106.831 93.59 106.557L96.6424 101.564L102.207 103.651C102.556 103.782 102.936 103.805 103.299 103.719C103.661 103.633 103.99 103.441 104.243 103.167C104.496 102.893 104.661 102.55 104.718 102.182C104.776 101.813 104.722 101.436 104.563 101.099C103.289 98.3841 102.132 95.577 101.123 92.7563C100.762 91.7456 100.455 90.7383 100.133 89.7287C101.325 89.7898 102.495 89.3936 103.404 88.6209C104.196 87.6755 104.596 86.4626 104.521 85.2316C104.541 84.8718 104.571 84.3298 104.585 84.2456C104.879 84.0428 105.192 83.8707 105.521 83.732C106.693 83.329 107.666 82.4922 108.24 81.3937C108.607 80.2232 108.513 78.9566 107.976 77.8533C107.854 77.509 107.671 76.9881 107.654 76.9002ZM13.8164 77.3314V18.1719C13.8169 17.6747 14.0146 17.1981 14.3661 16.8466C14.7176 16.4951 15.1942 16.2974 15.6914 16.2969H98.5174C99.0145 16.2974 99.4911 16.4951 99.8427 16.8466C100.194 17.1981 100.392 17.6747 100.392 18.1719V56.0144C100.268 56.0064 100.137 55.9941 100.019 55.9877C99.6581 55.9685 99.1143 55.9392 99.0319 55.9236C98.8285 55.6307 98.656 55.3175 98.5174 54.9889C98.1149 53.8169 97.2789 52.8435 96.181 52.2688C95.0102 51.9002 93.7427 51.9949 92.6397 52.5334C92.2955 52.6552 91.7755 52.8392 91.6876 52.8557C91.3945 52.6656 91.1215 52.4463 90.8727 52.2011C90.0413 51.2723 88.8895 50.6921 87.6482 50.577C86.407 50.6921 85.2552 51.2723 84.4238 52.2011C84.1656 52.4346 83.7719 52.788 83.7078 52.8346H83.7005C83.343 52.7711 82.9932 52.6701 82.6568 52.5334C82.1252 52.2151 81.5263 52.026 80.9083 51.9814C80.2903 51.9368 79.6704 52.0379 79.0986 52.2766C78.5268 52.5153 78.0191 52.8849 77.6162 53.3557C77.2133 53.8265 76.9266 54.3852 76.7791 54.987C76.6271 55.3084 76.3946 55.7946 76.3488 55.866C75.9976 55.9437 75.6392 55.9842 75.2795 55.9868C74.7127 56.0018 74.1486 56.0696 73.5944 56.1892H68.3544C67.8571 56.1892 67.3802 56.3867 67.0285 56.7383C66.6769 57.09 66.4794 57.5669 66.4794 58.0642C66.4794 58.5614 66.6769 59.0383 67.0285 59.39C67.3802 59.7416 67.8571 59.9392 68.3544 59.9392H70.8128C70.7985 60.1259 70.7828 60.3158 70.7732 60.4912C70.7549 60.8501 70.7256 61.3939 70.7073 61.479C70.4146 61.6819 70.1017 61.8537 69.7735 61.9918C68.6018 62.3952 67.6288 63.2319 67.0544 64.33C66.6869 65.5006 66.7819 66.7676 67.3199 67.8704C67.4408 68.2146 67.6257 68.7355 67.6422 68.8216C67.4519 69.1143 67.233 69.3872 66.9885 69.6364C66.0586 70.4676 65.4777 71.6199 65.3625 72.8618C65.4781 74.103 66.0582 75.2546 66.9867 76.0863C67.221 76.3463 67.5744 76.7382 67.6202 76.8022C67.5586 77.1619 67.4579 77.5137 67.3199 77.8514C67.1593 78.2941 67.0277 78.7467 66.9258 79.2064H15.6914C15.1943 79.2059 14.7177 79.0082 14.3661 78.6567C14.0146 78.3052 13.8169 77.8286 13.8164 77.3314ZM84.594 97.7705C84.0557 99.1026 83.4715 100.427 82.8472 101.734L80.7397 98.285C80.5118 97.9133 80.1618 97.6325 79.7495 97.4906C79.3372 97.3488 78.8885 97.3549 78.4802 97.5077L75.6384 98.5743C76.2627 97.0674 76.8505 95.5448 77.3962 94.0177C77.5721 93.5258 77.7142 93.0221 77.8827 92.5254C78.2149 92.9277 78.6373 93.2461 79.1155 93.4547C80.2865 93.8209 81.5532 93.7263 82.6568 93.1901C83.001 93.0683 83.521 92.8843 83.6089 92.8678C83.902 93.0579 84.175 93.2772 84.4238 93.5224C84.6228 93.7017 84.8437 93.8968 85.0828 94.0893C85.219 94.5115 85.3633 94.933 85.5077 95.3548C85.22 96.1498 84.9267 96.9493 84.594 97.7705ZM96.5087 97.5077C96.1004 97.3541 95.6514 97.3477 95.239 97.4896C94.8265 97.6315 94.4765 97.9128 94.2491 98.285L92.1416 101.734C91.5173 100.427 90.9332 99.1017 90.3948 97.7705C89.9873 96.7626 89.608 95.7393 89.2463 94.7117C89.8362 94.3852 90.3827 93.9856 90.8727 93.5224C91.1309 93.289 91.5246 92.9356 91.5887 92.8889C91.952 92.9334 92.306 93.0347 92.6379 93.1892C93.7412 93.7262 95.008 93.8212 96.1791 93.4547C96.5543 93.2923 96.8952 93.0603 97.1839 92.7709C97.3268 93.1884 97.4437 93.602 97.5927 94.0187C98.1383 95.5449 98.7261 97.0674 99.3505 98.5743L96.5087 97.5077ZM105.521 73.5768C104.786 74.265 104.257 75.144 103.992 76.1155C103.867 77.1325 104.022 78.1643 104.439 79.1001C104.529 79.3519 104.651 79.7007 104.706 79.9351C104.499 80.0651 104.155 80.229 103.908 80.3471C102.922 80.6403 102.07 81.2688 101.498 82.1238C100.926 82.9789 100.671 84.0069 100.777 85.03C100.762 85.301 100.742 85.6773 100.702 85.9171C100.462 85.9574 100.087 85.9776 99.8156 85.9921C98.7961 85.9648 97.7884 86.2155 96.9006 86.7172C96.7908 86.7998 96.6863 86.8893 96.5879 86.9852C96.5629 87.005 96.5407 87.0253 96.5167 87.0463C95.9253 87.6423 95.455 88.3474 95.1318 89.1223C95.0128 89.3695 94.8499 89.7129 94.7199 89.9207C94.4855 89.8648 94.1376 89.7421 93.8867 89.6533C92.9518 89.2351 91.9205 89.0799 90.9039 89.2047C89.9322 89.4701 89.0531 89.9996 88.3643 90.7346C88.1366 90.9475 87.8976 91.148 87.6483 91.3352C87.399 91.148 87.16 90.9475 86.9324 90.7346C86.2439 90.0001 85.3655 89.4705 84.3945 89.2047C84.1689 89.1607 83.9396 89.1389 83.7097 89.1397C82.9189 89.1788 82.1405 89.3525 81.4081 89.6533C81.1572 89.7421 80.8093 89.8648 80.575 89.9207C80.445 89.7129 80.282 89.3694 80.163 89.1214C79.8088 88.2253 79.2377 87.4312 78.5009 86.8102L78.4857 86.797C78.452 86.7724 78.4275 86.7406 78.3923 86.7171C77.5054 86.2145 76.4982 85.9635 75.4791 85.9911C75.2081 85.9765 74.8328 85.9564 74.5929 85.9162C74.5526 85.6763 74.5325 85.3 74.5179 85.029C74.6237 84.0056 74.3687 82.9774 73.797 82.1221C73.2253 81.2667 72.3728 80.6379 71.3868 80.3443C71.1396 80.2261 70.7972 80.0632 70.5885 79.9341C70.6452 79.6997 70.7679 79.3518 70.8558 79.101C71.2735 78.1649 71.4286 77.1329 71.3044 76.1154C71.0388 75.1446 70.5096 74.2662 69.7755 73.5776C69.5623 73.3497 69.3612 73.1107 69.1731 72.8617C69.3606 72.6122 69.5617 72.3732 69.7755 72.1457C70.5095 71.4571 71.0386 70.5788 71.3042 69.608C71.4284 68.5902 71.2733 67.5579 70.8555 66.6216C70.7676 66.3707 70.6449 66.0228 70.5882 65.7894C70.7969 65.6594 71.1393 65.4955 71.3884 65.3774C72.3359 65.0164 73.1671 64.4039 73.7925 63.6058C74.295 62.7189 74.5457 61.7116 74.5176 60.6926C74.5323 60.4216 74.5524 60.0453 74.5926 59.8064C74.8325 59.7661 75.2097 59.746 75.4807 59.7314C76.504 59.8373 77.5321 59.5824 78.3873 59.0106C79.2426 58.4389 79.8712 57.5863 80.1644 56.6003C80.2835 56.3531 80.4464 56.0107 80.5764 55.8038C80.8089 55.8587 81.1569 55.9814 81.4077 56.0702C82.3435 56.4878 83.3752 56.6428 84.3924 56.5188C85.3641 56.2535 86.2432 55.7239 86.932 54.9889C87.1597 54.776 87.3987 54.5755 87.648 54.3884C87.8973 54.5755 88.1363 54.776 88.3639 54.9889C89.0524 55.7235 89.9308 56.253 90.9018 56.5188C91.9195 56.6423 92.9517 56.4873 93.8882 56.0702C94.1391 55.9814 94.4869 55.8587 94.7213 55.8038C94.8513 56.0107 95.0143 56.3549 95.1315 56.6021C95.4256 57.5876 96.0545 58.4395 96.9095 59.0109C97.7645 59.5823 98.7922 59.8375 99.8152 59.7323C100.088 59.7469 100.463 59.7671 100.703 59.8073C100.744 60.0471 100.764 60.4234 100.778 60.6944C100.75 61.7134 101.001 62.7206 101.503 63.6076C102.129 64.4049 102.96 65.0166 103.908 65.3774C104.155 65.4955 104.499 65.6593 104.706 65.7884C104.651 66.0228 104.528 66.3715 104.439 66.6234C104.022 67.5584 103.867 68.589 103.99 69.6053C104.255 70.5776 104.785 71.4572 105.521 72.1459C105.734 72.3734 105.934 72.6124 106.121 72.8618C105.934 73.1108 105.734 73.3494 105.521 73.5768Z" fill="#DA8F75"/>
<path d="M68.3516 50.5645H94.6016C95.0988 50.5645 95.5758 50.3669 95.9274 50.0153C96.279 49.6636 96.4766 49.1867 96.4766 48.6895C96.4766 48.1922 96.279 47.7153 95.9274 47.3636C95.5758 47.012 95.0988 46.8145 94.6016 46.8145H68.3516C67.8543 46.8145 67.3774 47.012 67.0257 47.3636C66.6741 47.7153 66.4766 48.1922 66.4766 48.6895C66.4766 49.1867 66.6741 49.6636 67.0257 50.0153C67.3774 50.3669 67.8543 50.5645 68.3516 50.5645Z" fill="#DA8F75"/>
</svg>
