<svg width="120" height="120" viewBox="0 0 120 120" fill="none" xmlns="http://www.w3.org/2000/svg">
<path d="M60.0818 55.5947C59.8356 55.5947 59.5918 55.5463 59.3642 55.4521C59.1367 55.3579 58.93 55.2198 58.7559 55.0456C58.5818 54.8715 58.4436 54.6648 58.3494 54.4373C58.2552 54.2098 58.2068 53.9659 58.2068 53.7197V38.7197C58.2068 38.2224 58.4044 37.7455 58.756 37.3938C59.1077 37.0422 59.5846 36.8447 60.0818 36.8447C60.5791 36.8447 61.056 37.0422 61.4077 37.3938C61.7593 37.7455 61.9568 38.2224 61.9568 38.7197V53.7197C61.9569 53.9659 61.9085 54.2098 61.8143 54.4373C61.72 54.6648 61.5819 54.8715 61.4078 55.0456C61.2337 55.2198 61.027 55.3579 60.7995 55.4521C60.5719 55.5463 60.3281 55.5947 60.0818 55.5947Z" fill="#DA8F75"/>
<path d="M47.4727 55.5947C47.2264 55.5948 46.9826 55.5463 46.755 55.4521C46.5275 55.3579 46.3208 55.2198 46.1467 55.0457C45.9726 54.8716 45.8345 54.6649 45.7402 54.4373C45.646 54.2098 45.5976 53.966 45.5977 53.7197V38.7197C45.5977 38.2224 45.7952 37.7455 46.1468 37.3939C46.4985 37.0423 46.9754 36.8447 47.4727 36.8447C47.9699 36.8447 48.4469 37.0423 48.7985 37.3939C49.1501 37.7455 49.3477 38.2224 49.3477 38.7197V53.7197C49.3477 53.966 49.2993 54.2098 49.2051 54.4373C49.1109 54.6648 48.9727 54.8716 48.7986 55.0457C48.6245 55.2198 48.4178 55.3579 48.1903 55.4521C47.9628 55.5463 47.7189 55.5948 47.4727 55.5947Z" fill="#DA8F75"/>
<path d="M34.8672 55.5947C34.6209 55.5948 34.3771 55.5463 34.1496 55.4521C33.9221 55.3579 33.7153 55.2198 33.5412 55.0457C33.3671 54.8716 33.229 54.6649 33.1348 54.4373C33.0406 54.2098 32.9921 53.966 32.9922 53.7197V38.7197C32.9922 38.2224 33.1897 37.7455 33.5414 37.3939C33.893 37.0423 34.3699 36.8447 34.8672 36.8447C35.3645 36.8447 35.8414 37.0423 36.193 37.3939C36.5446 37.7455 36.7422 38.2224 36.7422 38.7197V53.7197C36.7423 53.966 36.6938 54.2098 36.5996 54.4373C36.5054 54.6648 36.3673 54.8716 36.1932 55.0457C36.019 55.2198 35.8123 55.3579 35.5848 55.4521C35.3573 55.5463 35.1134 55.5948 34.8672 55.5947Z" fill="#DA8F75"/>
<path d="M72.6914 55.5947C72.4452 55.5948 72.2013 55.5463 71.9738 55.4521C71.7463 55.3579 71.5396 55.2198 71.3654 55.0457C71.1913 54.8716 71.0532 54.6649 70.959 54.4373C70.8648 54.2098 70.8163 53.966 70.8164 53.7197V38.7197C70.8164 38.2224 71.0139 37.7455 71.3656 37.3939C71.7172 37.0423 72.1941 36.8447 72.6914 36.8447C73.1887 36.8447 73.6656 37.0423 74.0172 37.3939C74.3689 37.7455 74.5664 38.2224 74.5664 38.7197V53.7197C74.5665 53.966 74.518 54.2098 74.4238 54.4373C74.3296 54.6649 74.1915 54.8716 74.0174 55.0457C73.8433 55.2198 73.6365 55.3579 73.409 55.4521C73.1815 55.5463 72.9377 55.5948 72.6914 55.5947Z" fill="#DA8F75"/>
<path d="M85.3008 55.5947C85.0545 55.5948 84.8107 55.5463 84.5832 55.4521C84.3557 55.3579 84.1489 55.2198 83.9748 55.0457C83.8007 54.8716 83.6626 54.6649 83.5684 54.4373C83.4742 54.2098 83.4257 53.966 83.4258 53.7197V38.7197C83.4258 38.2224 83.6233 37.7455 83.975 37.3939C84.3266 37.0423 84.8035 36.8447 85.3008 36.8447C85.7981 36.8447 86.275 37.0423 86.6266 37.3939C86.9782 37.7455 87.1758 38.2224 87.1758 38.7197V53.7197C87.1758 53.966 87.1274 54.2098 87.0332 54.4373C86.939 54.6649 86.8009 54.8716 86.6268 55.0457C86.4526 55.2198 86.2459 55.3579 86.0184 55.4521C85.7909 55.5463 85.547 55.5948 85.3008 55.5947Z" fill="#DA8F75"/>
<path d="M105.584 59.1359H105.301C103.319 47.0334 99.0588 37.8414 92.2479 31.1409C91.2159 30.1212 89.8224 29.5512 88.3716 29.5552H84.6961C84.0204 25.688 82.9776 21.894 81.582 18.2246C80.6765 15.9022 79.0886 13.9087 77.0275 12.5068C74.9664 11.1048 72.529 10.3603 70.0363 10.3712H49.9662C47.4732 10.3603 45.0354 11.105 42.9741 12.5073C40.9129 13.9096 39.3249 15.9036 38.4196 18.2264C37.0235 21.895 35.9808 25.6885 35.3057 29.5552H31.6309C30.1801 29.5511 28.7865 30.1212 27.7545 31.1409C20.9454 37.8413 16.6843 47.0334 14.7014 59.1359H14.4189C12.6357 59.1359 10.9255 59.8442 9.66462 61.1052C8.40369 62.3661 7.69531 64.0763 7.69531 65.8595C7.69531 67.6427 8.40369 69.3529 9.66462 70.6138C10.9255 71.8748 12.6357 72.5831 14.4189 72.5831H14.7014C16.6843 84.6856 20.9454 93.8777 27.7545 100.578C28.7548 101.562 30.0938 102.124 31.4963 102.151V106.108C31.4973 107.119 31.8996 108.089 32.6149 108.804C33.3301 109.519 34.2998 109.921 35.3112 109.922H39.1903C40.2017 109.921 41.1714 109.519 41.8867 108.804C42.6019 108.089 43.0042 107.119 43.0053 106.108V102.164H76.997V106.108C76.9981 107.119 77.4004 108.089 78.1157 108.804C78.8309 109.519 79.8007 109.921 80.8121 109.922H84.6912C85.7026 109.921 86.6723 109.519 87.3876 108.804C88.1028 108.089 88.5052 107.119 88.5062 106.108V102.151C89.9087 102.124 91.2477 101.562 92.248 100.578C99.0588 93.8778 103.319 84.6857 105.301 72.5832H105.584C107.367 72.5832 109.077 71.8748 110.338 70.6139C111.599 69.353 112.307 67.6428 112.307 65.8595C112.307 64.0763 111.599 62.3661 110.338 61.1052C109.077 59.8443 107.367 59.1359 105.584 59.1359ZM41.9095 19.5998C42.5412 17.9792 43.6493 16.5882 45.0876 15.6102C46.5259 14.6321 48.2269 14.113 49.9662 14.1213H70.0364C71.7751 14.113 73.4755 14.6318 74.9135 15.6091C76.3516 16.5864 77.4598 17.9765 78.0922 19.5961C79.3213 22.8246 80.2551 26.158 80.8819 29.5552H77.5537C76.9713 26.569 76.1355 23.6379 75.0554 20.7936C74.6614 19.7849 73.971 18.9192 73.0752 18.3105C72.1795 17.7019 71.1203 17.379 70.0374 17.3842H49.9652C48.8822 17.3783 47.8229 17.7011 46.9272 18.3098C46.0315 18.9185 45.3414 19.7846 44.9481 20.7936C43.867 23.6377 43.0307 26.5689 42.4481 29.5552H39.1198C39.7459 26.159 40.6797 22.8268 41.9095 19.5998ZM73.7284 29.5552H46.2734C46.7971 27.0382 47.521 24.5669 48.4381 22.1651C48.5586 21.8591 48.7691 21.5967 49.0417 21.4127C49.3143 21.2287 49.6363 21.1316 49.9652 21.1342H70.0372C70.3665 21.1316 70.6888 21.2289 70.9617 21.4132C71.2345 21.5976 71.4449 21.8604 71.5653 22.1669C72.4816 24.5683 73.205 27.0389 73.7284 29.5552ZM30.3839 33.8143C30.7163 33.487 31.1644 33.3041 31.6308 33.3052H88.3716C88.838 33.3041 89.2861 33.487 89.6185 33.8143C95.7351 39.833 99.6426 48.1313 101.531 59.1359H18.472C20.3607 48.1313 24.2682 39.8329 30.3839 33.8143ZM39.2554 106.108C39.2551 106.125 39.2482 106.141 39.236 106.153C39.2238 106.165 39.2075 106.172 39.1904 106.172L35.2463 106.108V102.164H39.2554V106.108ZM84.7562 106.108C84.7559 106.125 84.749 106.141 84.7368 106.153C84.7246 106.165 84.7083 106.172 84.6912 106.172L80.7471 106.108V102.164H84.7562V106.108ZM89.6185 97.9048C89.2861 98.2321 88.8381 98.415 88.3717 98.4139H31.6309C31.1644 98.415 30.7164 98.2321 30.384 97.9048C24.2683 91.8861 20.3608 83.5878 18.4721 72.5832H101.531C99.6426 83.5878 95.7352 91.8862 89.6185 97.9048ZM105.584 68.8332H14.4189C13.6303 68.8332 12.8739 68.5199 12.3163 67.9622C11.7586 67.4046 11.4453 66.6482 11.4453 65.8595C11.4453 65.0709 11.7586 64.3145 12.3163 63.7569C12.8739 63.1992 13.6303 62.8859 14.4189 62.8859H105.584C106.372 62.8859 107.129 63.1992 107.686 63.7569C108.244 64.3145 108.557 65.0709 108.557 65.8595C108.557 66.6482 108.244 67.4046 107.686 67.9622C107.129 68.5199 106.372 68.8332 105.584 68.8332Z" fill="#DA8F75"/>
</svg>
