<svg width="32" height="32" viewBox="0 0 32 32" fill="none" xmlns="http://www.w3.org/2000/svg">
<g clip-path="url(#clip0_2023_793)">
<path d="M9.33333 9.33333V6.66667C9.33333 5.19391 10.5272 4 12 4C13.4728 4 14.6667 5.19391 14.6667 6.66667V9.33333C14.6667 10.8061 13.4728 12 12 12C10.5272 12 9.33333 10.8061 9.33333 9.33333ZM20 12C21.4728 12 22.6667 10.8061 22.6667 9.33333V6.66667C22.6667 5.19391 21.4728 4 20 4C18.5272 4 17.3333 5.19391 17.3333 6.66667V9.33333C17.3333 10.8061 18.5272 12 20 12ZM9.33333 16V14.6667C9.33333 13.1939 8.13943 12 6.66667 12C5.19391 12 4 13.1939 4 14.6667V16C4 17.4728 5.19391 18.6667 6.66667 18.6667C8.13943 18.6667 9.33333 17.4728 9.33333 16ZM25.3333 12C23.8606 12 22.6667 13.1939 22.6667 14.6667V16C22.6667 17.4728 23.8606 18.6667 25.3333 18.6667C26.8061 18.6667 28 17.4728 28 16V14.6667C28 13.1939 26.8061 12 25.3333 12ZM22.4 21.0667C21.6935 20.365 21.1038 19.5547 20.6533 18.6667L19.4 16.1733C18.9572 15.2568 18.0312 14.6722 17.0133 14.6667H14.9867C13.9747 14.6672 13.0503 15.2405 12.6 16.1467L11.3467 18.6667C10.8962 19.5547 10.3065 20.365 9.6 21.0667L7.45333 23.2133C6.94928 23.7144 6.6661 24.3959 6.66667 25.1067V25.3333C6.66667 26.8061 7.86057 28 9.33333 28H22.6667C24.1394 28 25.3333 26.8061 25.3333 25.3333V25.1067C25.3339 24.3959 25.0507 23.7144 24.5467 23.2133L22.4 21.0667Z" fill="#4DB87D"/>
</g>
<defs>
<clipPath id="clip0_2023_793">
<rect width="32" height="32" fill="white"/>
</clipPath>
</defs>
</svg>
