<svg width="0" height="0" class="hidden">
  <symbol fill="none" xmlns="http://www.w3.org/2000/svg" viewBox="0 0 24 24" id="transportation-air">
    <path d="M20.5595 3.90961C21.1495 4.49961 21.1495 5.44961 20.5595 6.02961L16.6695 9.91961L18.7895 19.1096L17.3795 20.5296L13.4995 13.0996L9.59945 16.9996L9.95945 19.4696L8.88945 20.5296L7.12945 17.3496L3.93945 15.5796L4.99945 14.4996L7.49945 14.8696L11.3695 10.9996L3.93945 7.08961L5.35945 5.67961L14.5495 7.79961L18.4395 3.90961C18.9995 3.32961 19.9995 3.32961 20.5595 3.90961Z" fill="black"></path>
  </symbol>
  <symbol fill="none" xmlns="http://www.w3.org/2000/svg" viewBox="0 0 16 19" id="transportation-railway">
    <path d="M9.86193e-07 13.5V4.00001C9.86193e-07 3.11667 0.229335 2.41234 0.688001 1.88701C1.14667 1.36167 1.75067 0.961674 2.5 0.687007C3.25 0.412341 4.10433 0.229007 5.063 0.137007C6.02167 0.0450073 7.00067 -0.000659472 8 7.19423e-06C9.1 7.19423e-06 10.1377 0.0460072 11.113 0.138007C12.0883 0.230007 12.9383 0.413341 13.663 0.688007C14.3877 0.962674 14.9583 1.36267 15.375 1.88801C15.7917 2.41334 16 3.11734 16 4.00001V13.5C16 14.4833 15.6627 15.3127 14.988 15.988C14.3133 16.6633 13.484 17.0007 12.5 17L14 18.5V19H12L10 17H6L4 19H2V18.5L3.5 17C2.51667 17 1.68733 16.6627 1.012 15.988C0.336668 15.3133 -0.00066568 14.484 9.86193e-07 13.5ZM2 8.00001H7V5.00001H2V8.00001ZM9 8.00001H14V5.00001H9V8.00001ZM4.5 14C4.93333 14 5.29167 13.8583 5.575 13.575C5.85833 13.2917 6 12.9333 6 12.5C6 12.0667 5.85833 11.7083 5.575 11.425C5.29167 11.1417 4.93333 11 4.5 11C4.06667 11 3.70833 11.1417 3.425 11.425C3.14167 11.7083 3 12.0667 3 12.5C3 12.9333 3.14167 13.2917 3.425 13.575C3.70833 13.8583 4.06667 14 4.5 14ZM11.5 14C11.9333 14 12.2917 13.8583 12.575 13.575C12.8583 13.2917 13 12.9333 13 12.5C13 12.0667 12.8583 11.7083 12.575 11.425C12.2917 11.1417 11.9333 11 11.5 11C11.0667 11 10.7083 11.1417 10.425 11.425C10.1417 11.7083 10 12.0667 10 12.5C10 12.9333 10.1417 13.2917 10.425 13.575C10.7083 13.8583 11.0667 14 11.5 14Z" fill="black"></path>
  </symbol>
  <symbol fill="none" xmlns="http://www.w3.org/2000/svg" viewBox="0 0 24 24" id="transportation-bus">
    <path d="M18 18.5C17.6022 18.5 17.2206 18.342 16.9393 18.0607C16.658 17.7794 16.5 17.3978 16.5 17C16.5 16.6022 16.658 16.2206 16.9393 15.9393C17.2206 15.658 17.6022 15.5 18 15.5C18.3978 15.5 18.7794 15.658 19.0607 15.9393C19.342 16.2206 19.5 16.6022 19.5 17C19.5 17.3978 19.342 17.7794 19.0607 18.0607C18.7794 18.342 18.3978 18.5 18 18.5ZM19.5 9.5L21.46 12H17V9.5M6 18.5C5.60218 18.5 5.22064 18.342 4.93934 18.0607C4.65804 17.7794 4.5 17.3978 4.5 17C4.5 16.6022 4.65804 16.2206 4.93934 15.9393C5.22064 15.658 5.60218 15.5 6 15.5C6.39782 15.5 6.77936 15.658 7.06066 15.9393C7.34196 16.2206 7.5 16.6022 7.5 17C7.5 17.3978 7.34196 17.7794 7.06066 18.0607C6.77936 18.342 6.39782 18.5 6 18.5ZM20 8H17V4H3C1.89 4 1 4.89 1 6V17H3C3 17.7956 3.31607 18.5587 3.87868 19.1213C4.44129 19.6839 5.20435 20 6 20C6.79565 20 7.55871 19.6839 8.12132 19.1213C8.68393 18.5587 9 17.7956 9 17H15C15 17.7956 15.3161 18.5587 15.8787 19.1213C16.4413 19.6839 17.2044 20 18 20C18.7956 20 19.5587 19.6839 20.1213 19.1213C20.6839 18.5587 21 17.7956 21 17H23V12L20 8Z" fill="black"></path>
  </symbol>
</svg>
